<?xml version="1.0" encoding="UTF-8"?>
<svg version="1.1" xmlns="http://www.w3.org/2000/svg" width="48" height="48">
<path d="M0 0 C5.82485779 3.51996782 10.54466582 8.98962934 12.5625 15.5 C13.36764105 23.33608208 13.68710392 31.11922577 8.5625 37.5 C3.75801361 42.54521222 -0.59927055 46.10562995 -7.70703125 46.8359375 C-16.22326573 46.92983204 -22.11345494 46.6177288 -28.40234375 40.62890625 C-34.7841668 33.72505269 -35.91792252 28.29832071 -35.7421875 18.9453125 C-35.04689797 11.08319245 -31.38995981 6.95041296 -25.53515625 1.9453125 C-18.47077988 -2.92213491 -7.84396301 -3.47595223 0 0 Z " fill="#2F4051" transform="translate(35.4375,1.5)"/>
<path d="M0 0 C4.64506116 2.69305103 7.47028594 5.82362161 9 11 C9.21447731 13.69350073 9.32498534 16.24815841 9.3125 18.9375 C9.32861328 19.62779297 9.34472656 20.31808594 9.36132812 21.02929688 C9.3673238 27.35472941 7.59441189 31.21114763 3.4375 35.875 C-0.00910947 38.51568587 -3.2704248 38.70066151 -7.51953125 38.5078125 C-11.57997582 37.67654038 -13.90016894 35.69550527 -17 33 C-16.67 31.68 -16.34 30.36 -16 29 C-13.03824877 29.61277612 -11.61941217 30.25372522 -9 32 C-5.50379537 32.54275757 -2.16284966 32.67520303 0.9375 30.875 C2.38591512 28.31897331 2.67815583 25.89659753 3 23 C2.566875 23.474375 2.13375 23.94875 1.6875 24.4375 C-0.77492322 26.7175215 -2.96406354 26.9951624 -6.25 27.4375 C-11.23409112 26.8560227 -13.67351517 24.62718402 -17 21 C-18.84330721 17.31338558 -18.35620938 13.03279906 -18 9 C-16.39875543 5.23707527 -14.45444189 3.15902618 -11 1 C-7.23849274 -0.25383575 -3.88998961 -0.75519945 0 0 Z " fill="#EFF0F1" transform="translate(29,4)"/>
<path d="M0 0 C1.90625 0.40625 1.90625 0.40625 4.40625 1.84375 C6.64195183 5.66307396 6.66629105 9.09143361 5.90625 13.40625 C4.40625 15.96875 4.40625 15.96875 1.90625 17.40625 C-0.90530875 18.00543465 -3.28877022 18.06151167 -6.09375 17.40625 C-9.35479325 14.71588932 -9.9972071 13.08205027 -10.59375 8.90625 C-9.63004381 2.16030669 -6.66217393 -0.49717716 0 0 Z " fill="#2F3F51" transform="translate(26.09375,8.59375)"/>
</svg>
